<?xml version="1.0" encoding="UTF-8"?>
<svg id="_레이어_2" data-name="레이어 2" xmlns="http://www.w3.org/2000/svg" viewBox="0 0 1948.27 1167.06">
  <g id="_레이어_1-2" data-name="레이어 1">
    <g>
      <path d="M1194.62,205.26c-.92-7.13-6.54-17.69-9.98-24.1-.43-1.49,1.64-1.5,2.95-1.05,9.95,3.43,21.51,11.93,33.5,15.87s24.79,6.8,37.5,8.2c1.93,2.02-7.99,13.81-7.99,16.41v187.19c65.86-15.98,121.23-67.87,133.95-142.31h-58.98c-1.92,0-6.79,11.77-9.99,6.56-4.12-6.71-8.01-22.84-12.66-32.12-2.45-4.88-25.89-40.51-24.31-42.32,6.02,3.91,13.35,9.73,19.99,12.02,23.53,8.13,134.64,5.27,165.01,3.38,8.87-.55,17.94-4.29,26.9-4.44l-16.38,22.53c-3.53,14.06-7.68,28.41-7.62,43.13-3.74-5.24-16.81-13.19-21.77-8.52-1.61,1.52-9.18,38.54-12.14,44.51,13.45,35.22,38.11,64.42,65.92,86.61v-195.95c0-1.38-8.65-16.49-9.98-19.72-1.38-4.71,11.49,5.29,12.63,5.87,19.09,9.78,40,17,61.33,17.15.74.56-10,11.33-10,16.4v49.26h25.99v-58.02c0-1.66-3.05-14.92-3.87-17.66-1.66-5.59-5.6-8.63-6.11-14.08,22.9,12.82,47.86,23.2,73.96,24.1-10.13,10.12-7.59,17.34-8.25,29.25-1.2,21.55-1.79,44.11-1.83,65.87-.03,16.93-2.27,71.97,2.54,82.79,1.91,4.29,5.86,6.21,7.54,10.33-25.15.8-48.28,12.34-71.96,19.72,12.12-28.58,8.12-61.37,5.99-91.95h-24v49.27c0,2.07,6.56,13.72,6,14.21-9.23.83-19.51,3.73-27.99,7.69-4.97,2.32-30.4,21.96-31.88,20.73-.47-.39-.05-4.87-3.38-6.15-6.35-2.44-18.47-3.01-26.71-5.83-25.58-8.75-46.48-21.81-66.99-40.57-4,0-13.96,13.92-18.05,17.53-40.26,35.46-82.19,43.25-132.89,32.92.05,8.52,5.83,13.54,9.99,19.67-19.55,1.68-39.74,8.79-57.94,16.48-5.17,2.19-11.57,8.51-16.02,6.54,1.81-3.24,7.98-17.46,7.98-19.72v-93.05l-71.98,2.17c11.44-17.17,15.41-38.39,18.02-59.09,1.11-1.22,6.14,6.57,6.98,6.57h46.98c-2.42-26.1,3.26-59.06,0-84.29Z"/>
      <path d="M1746.43,666.62h45.98c-6.97,10.45-14.9,20.92-16.1,34.67-2.92,33.58.06,51.03,24.08,71.94l-23.97-3.37c-2.18,22.52,1.3,38.33,15.98,53.85h-269.91v44.88c62.68-2.18,126.43,2.88,189.02.09,22.85-1.02,50.43-2.58,71.94-11.27,5.04-2.03,33.47-19.36,34.95-17.98-23.4,33.5-47.15,68.26-62,107.69-6.62-1.75-2.84-23.49-7.2-24.82l-306.66,2.37c2.9-10.16,12.31-17.07,13.86-28.18,2.14-15.4,1.65-70.89-.77-86.37-1.21-7.71-3.44-14.1-9.07-19l-40.01-27.99,34.89,4.56,268.99-.09v-44.88h-234.92c-2.39,0-5.36,12.78-5.02,15.71-1.92,2.24-13.57-26.07-15.13-28.99-12.94-24.16-29.25-46.06-42.82-69.73,18.1,9.29,34.39,24.59,55,26.89,78.16,8.7,168.54-6.55,248,.13,6.78.66,11.52-4.18,16.72-8.16l20.15-23.36-5.98,31.41Z"/>
      <path d="M800.75,680.08c-3.32,5.04-17.99,22.98-17.99,28.05v218.8l29.99-6.71c-10.72,16.46-26.49,19.41-29.47,42.08-2.88,21.93.16,35.97,13.47,52.15h-36.99c-3.55,0-19.18,40.39-21.02,47.11-3.4.58-2.15-5.36-1.96-7.8,1.09-14.03,3.13-25.57-3.24-39.45-45.73,3.68-96.59-4.49-141.69.17-24.47,2.53-46.28,18.26-69.01,26.87,17.98-26.87,33.65-38.83,36.06-75.07,3.61-54.13-2.67-113.46-.3-168.15-2.48-23.15-16.43-29.4-29.77-43.99l30,4.47c2.32-45.37-28.96-78.02-43.97-116.7,12.42,9.59,26.15,23.47,39.89,30.39,5.11,2.57,18.21,7.76,23.07,7.76h222.93ZM716.78,740.68h-91.97v213.19h91.97v-213.19Z"/>
      <path d="M1068.66,960.6c39.52-.88,81.49.64,120.7-4.78,25.5-3.52,51.16-10.02,71.21-28.89l-59.99,130.14c-3.94.46-1.16-4.37-.98-6.71.88-11.98,2.54-23.93,3.02-35.92-42.2,6.29-84.64,2.99-127.05,4.4-28.26.94-56.65.91-83.42,11.84-8.39,3.42-17.27,8.76-25.44,12.94-.9-3.86,1.37-4.49,2.96-6.75,10.96-15.55,26.75-27.58,30.85-48.4,3.75-19.02.18-33.92.07-51.35-.25-42.43,4.72-103.81-.09-143.52-2.27-18.76-17.65-26.73-27.81-39.45l27.97,6.71c4-44.56-25.86-80.3-43.96-116.67,2.52-2.67,49.78,40.73,61,35.86,59.67-5.35,129.47,7.24,187.93.04,10.45-1.29,20.89-8.37,30.98-11.21-16.16,26.56-23.48,57.62-24.01,89.73-4.3-2.72-9.79-17.94-14.97-17.94h-128.96v76.3h132.96c4.73,0,16.85-10.64,23.01-10.08-16.41,25.85-22.75,52.59-24.03,84.12-3.69-1.82-3.78-6.84-8.03-10.02-1.76-1.32-11.64-5.67-12.94-5.67h-110.96v85.28Z"/>
      <path d="M89.99,615.56c-41.07-48.91-72.99-108.03-84.34-171.51C-41.55,180.18,215.27-39.49,468.43,43.39l24.41,10.54c-18.99-3.21-37.72-8.09-56.99-9.96-107.18-10.38-216.89,36.44-284.84,118.95-113.98,138.41-97.39,331.25,31.94,452.64h-92.97Z"/>
      <path d="M476.86,1069.44c1.45,8.13,12.23,16.65,15.99,23.54-10.51-.06-30.53-5.83-39.96-1.06-6.63,3.35-17.87,34.61-20.05,43.71l-4.36-41.07-4.6-3.81-231.91.04c-24.35,1.72-45.91,13.1-69,20.15,13.78-20.7,31.93-33.64,34.06-61.61.95-12.41,1.23-39.85-3.05-50.59-5.19-13.02-19.69-20.17-27-31.38l29.98,6.71c3.62-33.99-34.54-39.97-51.97-58.33l42.9,6.8,344.96-.08c-2.7,10.51-13.39,14.52-15.53,26.31-1.52,8.39-1.46,35.5-.5,44.42,1.73,16.14,14.54,22.66,22.04,34.71l-21.99-2.22c1.57,12.9-2.14,31.74,0,43.76ZM222.94,978.55v54.98c0,.24,2.79,3.37,3,3.37h181.94c.21,0,3-3.13,3-3.37v-51.61c0-.24-2.79-3.37-3-3.37h-184.94Z"/>
      <path d="M338.91,677.86c-9.06,25.93-10.33,54.62-17.66,81.43,9.01,12.62,17.06,26.09,24.49,39.92,8.16,15.18,19.75,44.91,30.16,55.91,4.75,5.02,13.03,7.68,16.98,13.45-29.14,6.17-53.06,22.64-75.94,42.66l7.7-29.81-32.71-55.46c-32.8,58.19-88.68,84.76-148.95,85.24l34.92-26.97,24.84-26.07-26.79-47.89c-36.04,66.65-106.1,96.55-172.93,100.92l31.81-19.24c25.94-19.61,54.29-40.13,70.95-70.7,10.73-19.68-7.94-29.57-14.8-46.91l30.78,15.87c8.48-16.96,27.04-80.91,20.21-96.69-2.23-5.16-17.3-11.54-21.67-16.07l-35.32-19.8c42.43,5.94,85.23,4.39,127.96,4.45,5.9,17.74-14.37,74.78-11.71,85.91.78,3.27,10.39,12.03,13.36,16.59,8.91,13.67,15.17,29.16,23.33,43.33,13.7-24.81,22.86-57.97,26.45-86.96,4.66-37.66-.33-57.42-25.45-83.53,31.97,17.26,64.98,32.38,99.97,40.39Z"/>
      <path d="M858.73,667.74c-2.67-26.59-18.86-56.32-25.97-81.91,29.21,37.42,59.56,78.47,107.94,80.81-9.17,10.86-14.63,21.79-15.98,37.03,4.94,103.21-6.63,214.2-.1,316.5,1.23,19.27,5.25,26.18,16.1,40.28-53.58,5.27-76.04,64.65-104.99,106.61l23-88.63v-212.07h-46.98c-1.38,0-11.41,14.77-14.99,15.71v-96.5c3.29,1.86,12.7,17.95,14.99,17.95h46.98v-135.77Z"/>
      <path d="M1383.55,812.49c10.23-1.63,24.4-12.89,34-17.94,1.33-.48,1.46,2,.96,3.32-5.17,13.73-17.13,32.03-23.69,47.48-1.87,4.42-15.77,45.61-18.25,43.44-.67-6.33-5.18-14.41-11.07-15.65-5.52-1.16-26.42-2.59-26.94,5.55,3.04,46.77-4.08,99.87.03,145.85.5,5.64,2.07,12.6,4.19,17.73,3.38,8.17,10.04,11.12,11.77,19.31-54.1,2.92-75.59,65.58-105.94,105.48,8.83-31.43,20.91-62.09,24.05-95.29-6.26-129.72,8.06-268.77.01-397.4-1.97-31.47-16.72-59.56-26.06-88.54,29.38,37.18,59.52,78.55,107.94,80.81-5.35,6.59-15.99,23.88-15.99,32.52v109.96c0,.24,2.79,3.37,3,3.37,12.41,0,30.52,1.82,41.99,0Z"/>
      <path d="M514.83,267.62c-.39.62-8.29,2.99-11.7,8.02-4.36,6.44-5.16,17.72-8.54,25.68-8.42,19.87-26.15,32.97-45.21,38.06-61.09-3.38-129.25,6.31-189.53.6-17.77-1.68-36.68-13.72-46.58-30-6.04-9.93-6.28-21.34-10.6-29.99-2.64-5.28-14.5-12.23-13.72-15.6,19.57-11.2,16.15-36.99,30.92-53.74,11.64-13.21,33.61-20.6,49.97-21.9,45.28-3.6,118.81-3.6,164.1,0,26.67,2.12,49.25,13.5,60.61,40.91,2.91,7.02,3.6,15.36,6.56,21.28,2.53,5.07,15.87,13.25,13.71,16.68ZM256.93,239.2c9.33,8.62,1.89,12.27,1.84,22.99-.07,14.74,9.17,25.76,22.03,28.59,17.02,3.75,127.5,3.83,144.18,0,18.04-4.15,24.56-25.58,13.59-41.4-2.01-2.89-10.42-10.18-12.7-10.18h-168.94Z"/>
      <path d="M1646.46,490.94c-17.31,4.55-14.95,17.85-20.25,31.49-9.57,24.6-30.49,38.9-54.63,40.88-61.38,5.03-130.56-2.43-192.32-1.96-17.27-5.99-32.29-16.31-40.45-34.52-6.45-14.38-4.14-31.3-22.22-35.89-1.31-2.11,13.06-9.68,14.9-13.2,2.82-5.38,4.1-17.36,7.33-24.81,9.82-22.62,30.28-34.72,52.65-36.49,62.18-4.93,133.13,1.58,195.44,2.91,19.37,5.56,30.87,18.73,39.3,37.97,2.58,5.89,2.59,12.74,5.41,18.16,3.51,6.73,11.47,8.71,14.84,15.46ZM1406,465.2c-26.64,10.34-24.09,45.74,5.76,49.61,31.16,4.04,108.11,3.7,139.7.21s31.18-45.76,1.85-50.13c-44.33-6.61-101.63,4.12-147.32.31Z"/>
      <path d="M878.72,490.94c-17.8,4.65-15.53,19.17-20.98,32.87-8.49,21.32-26.5,33.14-46.47,38.88-56.99-3.35-121.42,6.25-177.54.62-21.71-2.18-41.29-17.57-49.97-39.43-6.23-15.7-3.16-26.08-20.89-34.01,2.63-5.2,11.7-7.6,14.04-11.42,2.88-4.69,3.18-13.99,5.53-19.65,10.48-25.23,27.56-39.93,53.29-42.36,44.51-4.2,123.18-3.57,168.1-.01,21.82,1.73,42.08,12.92,51.97,35.04,3.64,8.15,4.65,20.46,8.02,26.25,1.98,3.41,16.12,11.22,14.89,13.21ZM652.26,465.21c-27.04,5.39-24.82,44.37,2.02,49.32,40.91-2.71,89.47,5.44,129.48.53,31.66-3.88,30.22-44.95,3.51-49.84-18.94-3.47-116.53-3.7-135.01-.02Z"/>
      <path d="M1581.49,1003.24c5.87-2.06,2-23.32-.53-28.58-3.53-7.35-12.18-9.42-17.89-13.51-1.98-1.42-3.57.22-2.57-5.02,4.73-1.16,18.78,1.74,21.7-.32,2.57-1.81,1.81-14.82,2.29-15.39,3.24-3.82,81.77,3.97,93.95-2.23-3.82,7.6-27.99,18.69-27.99,28.03v33.66c0,2.46,4.88,3.22,6.9,3.48,30.22,3.98,90.49,2.02,122.14-.02,39.23-2.53,71.34-19.41,106.88-35.98-31.01,31.92-62.25,59.76-87.6,98.01-2.72,4.1-11.49,22.26-12.4,23.13-.24.23-4.21.83-3.97-1.11v-25.8s-340.88,0-340.88,0c-3.67,0-5.94,22.89-5.02,26.93-1.45,2.37-22.45-46.29-24.38-50.04-12.51-24.32-27.88-46.59-41.57-70.04l43.27,27.73c3.98,1.83,16.42,7.06,19.7,7.06h147.95Z"/>
      <path d="M961.69,265.47c-2.73.85-6.4,11.46-9.98,6.56-3.66-5-10.22-25.73-14.66-34.3-6.82-13.15-15.49-24.84-22.33-37.92,11.57,5.01,21.77,13.06,34.92,13.19,59.5-3.57,123.08,4.47,182.08,0,8.45-.64,16.41-4.36,24.92-4.43-16.88,17.23-22.26,41.04-22,65.65-6.15.16-6.9-7.43-13.03-8.7-7.63-1.58-18.64.78-26.75.18,1.09,10.41-13.45,38.44-13.46,44.65,0,3.54,12.37,26.12,15.21,30.71,9.07,14.67,24.67,33.39,37.1,44.76s26.44,18.15,38.93,28.5c-33.32-4.78-64.79-10.08-93.8-29.72-10.28-6.96-18.26-16.41-28.88-22.57-38.24,43.23-84.7,63.01-139.95,54.19-5.4-.86-16.39-1.36-19.27-6.23,70.27-10.78,130.6-67.03,143.94-144.52h-72.98Z"/>
      <path d="M189.95,409.97c-1.77.49-7.26,9.39-10.02,4.4l-16.96-63.52c6.85,3.17,13,9.15,20.87,8.87h328.09c7.87.28,14.02-5.7,20.87-8.87-4.98,22.27-16.86,42.2-17.98,65.67-2.06,2.38-9.11-6.56-10.99-6.56h-122.96v45.98l-57.98,26.27v-72.25h-132.96Z"/>
      <path d="M416.88,665.5c-2.67-26.59-18.86-56.32-25.97-81.91,28.97,35.75,57.1,75.48,103.94,78.55-4.96,12.16-10.67,18.22-11.96,32.55-4.85,53.74,3.65,115.96-.12,170.63-1.08,12.05,9.21,17.03,14.09,25.68-32.33-1.53-62.74,13.55-93.97,20.2-1.21-1.04,14-22.21,14-30.27v-92.01c0-.24-2.79-3.37-3-3.37h-37.99c-2.24,0-10.15,13.98-12.97,15.69-2.72-19.63-4.71-39.37-8.61-58.79-1.71-8.54-6.47-19.75-7.41-27.62-1.06-8.86,11.21,4.82,14.12,6.63,1.93,1.19,9.81,5.75,10.87,5.75h41.99c.21,0,3-3.13,3-3.37,0-17.91,1.71-41.3,0-58.35Z"/>
      <path d="M280.92,431.86c-1.18,4.65-15.99,11.11-15.99,14.23v58.02h200.93c5.27,0,20.72-4,26.55-5.96,13.29-4.47,26.6-15.3,32.46-29.06,3.64-.4,2.03,7.26,1.76,9.59-4.82,40.58-38.34,65-64.77,88.9-1.53-1.39-2.35-13.12-2.99-13.12H192.95c1.01-3.68,5.22-3.83,8.04-7.62,2.48-3.34,5.22-9.05,5.83-13.32,1.7-12.04,1.75-60.02.01-71.98-1.01-6.93-5.51-10.87-9.86-15.47l-20.01-14.21h103.97Z"/>
      <path d="M1036.67,431.86c-1.42,4.53-15.99,10.26-15.99,14.23v58.02h196.93c1.86,0,14.13-2.47,17.11-3.16,17.42-4.02,35.47-14.82,41.9-34.04,3.48-.56,2.04,5.05,1.77,7.4-5.01,43.21-36,68.25-64.78,93.28-1.53-1.39-2.35-13.12-2.99-13.12h-259.91c3.22-6,10.67-11.41,11.9-18.71,1.75-10.41,1.56-63.33-.02-74.21-2.19-15.07-19.48-20-27.88-29.68h101.97Z"/>
      <path d="M622.81,339.91c25.6-.83,51.45,1.08,77.06.09,18.3-.71,46.25-1.16,62.87-7.78l26.02-16.37-48.99,89.73-.98-17.51-185.95,2.18c3.49-6.68,11.12-10.29,11.88-18.71-5.28-45.64,13.48-126.99-14.84-163.03-3.09-3.94-7.29-4.93-9.03-8.69,13.62,3.72,26.02,11.19,39.91,14.29,15.77,3.52,32.07,3.99,48.05,5.42.06,2.77-6,9.24-6,9.83v110.56Z"/>
      <path d="M854.73,355.23c-.4,14.7-1.87,25.89,8,37.2-10.26-4.98-67.25,20.21-69.97,17.52.64-7.51,5.19-13.09,6.04-20.73,2.89-25.75,2.75-171.75-3.11-191.56-1.7-5.75-5.81-10.47-6.96-16.46,12.06,4.74,23.56,11.33,36.01,15.3s25.13,6.83,37.98,7.69c-5.93,8.53-9.8,14.78-8,26.25h40.99c3.28,0,14.15-9.26,18.98-5.49-11.25,17.4-15.15,39.24-15.99,60.21-4.03,1.73-7.7-6.56-8.99-6.56h-34.99v28.46h42.99c3.34,0,12.45-9.29,16.98-5.48-12.16,16.37-15.94,39.69-15.99,60.21-4.03,1.73-7.7-6.56-8.99-6.56h-34.99Z"/>
      <path d="M548.82,79.95l48.75,4.23,21.23,3.73-64.97,6.01-4.13,1.87c-4.01,24.05-4.07,48.71-7.1,72.84-.3,2.42-.88,10.92-3.74,11.22-.89-28.55-3.97-57.38-8.3-85.66l-52.46-4.52-15.23-3.73c9.53-1.14,66.05-3.64,69.1-7.88L538.86,0c2.97-.14,3.47,7.05,3.75,9.21,3.04,23.34,3.66,47.33,6.22,70.73Z"/>
    </g>
    <path d="M1948.27,586.69l-29.13,3.54c-4.79.3-25.91.17-28.04,2.87-.95,1.21-1.98,15.81-2.25,19.14-1.33,16.53-1.23,33.34-2.4,49.89-.26,3.62-1.52,7.62-1.77,11.31l-5.37-80.81-57.06-5.36c18.84-2.86,38.01-4.23,57.07-5.35l5.36-64.18c.4,3.29,1.5,6.86,1.77,10.13.63,7.52,2.23,49.4,4.65,52.4.57.7,1.31,1.16,2.18,1.39l55,5.04Z"/>
  </g>
</svg>